<svg xmlns="http://www.w3.org/2000/svg" width="1200" height="805" viewBox="0 0 1200 805" role="img"><title>三個節奏分開：採樣、DHT交易、文字更新</title><desc>時間軸以程式已準備好為起點；不是每一個短刻度都會列印一行。</desc><style>text{font-family:'Microsoft JhengHei','Noto Sans CJK TC',sans-serif}</style><rect width="1200" height="805" fill="white"/><text x="30" y="48" font-size="32" fill="#183047" text-anchor="start">三個節奏分開：採樣、DHT交易、文字更新</text><text x="30" y="91" font-size="23" fill="#52657a" text-anchor="start">時間軸以程式已準備好為起點；不是每一個短刻度都會列印一行。</text><text x="30" y="147" font-size="25" fill="#183047" text-anchor="start">下圖僅示意理想排程；DHT交易完成與真實log時間可能稍晚。</text><text x="30" y="245" font-size="27" fill="#1765ad" text-anchor="start">KY：50 ms</text><line x1="280" y1="240" x2="1137.5" y2="240" stroke="#1765ad" stroke-width="2"/><line x1="280" y1="230" x2="280" y2="250" stroke="#1765ad" stroke-width="2"/><line x1="292.25" y1="230" x2="292.25" y2="250" stroke="#1765ad" stroke-width="2"/><line x1="304.5" y1="230" x2="304.5" y2="250" stroke="#1765ad" stroke-width="2"/><line x1="316.75" y1="230" x2="316.75" y2="250" stroke="#1765ad" stroke-width="2"/><line x1="329" y1="230" x2="329" y2="250" stroke="#1765ad" stroke-width="2"/><line x1="341.25" y1="230" x2="341.25" y2="250" stroke="#1765ad" stroke-width="2"/><line x1="353.5" y1="230" x2="353.5" y2="250" stroke="#1765ad" stroke-width="2"/><line x1="365.75" y1="230" x2="365.75" y2="250" stroke="#1765ad" stroke-width="2"/><line x1="378" y1="230" x2="378" y2="250" stroke="#1765ad" stroke-width="2"/><line x1="390.25" y1="230" x2="390.25" y2="250" stroke="#1765ad" stroke-width="2"/><line x1="402.5" y1="230" x2="402.5" y2="250" stroke="#1765ad" stroke-width="2"/><line x1="414.75" y1="230" x2="414.75" y2="250" stroke="#1765ad" stroke-width="2"/><line x1="427" y1="230" x2="427" y2="250" stroke="#1765ad" stroke-width="2"/><line x1="439.25" y1="230" x2="439.25" y2="250" stroke="#1765ad" stroke-width="2"/><line x1="451.5" y1="230" x2="451.5" y2="250" stroke="#1765ad" stroke-width="2"/><line x1="463.75" y1="230" x2="463.75" y2="250" stroke="#1765ad" stroke-width="2"/><line x1="476" y1="230" x2="476" y2="250" stroke="#1765ad" stroke-width="2"/><line x1="488.25" y1="230" x2="488.25" y2="250" stroke="#1765ad" stroke-width="2"/><line x1="500.5" y1="230" x2="500.5" y2="250" stroke="#1765ad" stroke-width="2"/><line x1="512.75" y1="230" x2="512.75" y2="250" stroke="#1765ad" stroke-width="2"/><line x1="525" y1="230" x2="525" y2="250" stroke="#1765ad" stroke-width="2"/><line x1="537.25" y1="230" x2="537.25" y2="250" stroke="#1765ad" stroke-width="2"/><line x1="549.5" y1="230" x2="549.5" y2="250" stroke="#1765ad" stroke-width="2"/><line x1="561.75" y1="230" x2="561.75" y2="250" stroke="#1765ad" stroke-width="2"/><line x1="574" y1="230" x2="574" y2="250" stroke="#1765ad" stroke-width="2"/><line x1="586.25" y1="230" x2="586.25" y2="250" stroke="#1765ad" stroke-width="2"/><line x1="598.5" y1="230" x2="598.5" y2="250" stroke="#1765ad" stroke-width="2"/><line x1="610.75" y1="230" x2="610.75" y2="250" stroke="#1765ad" stroke-width="2"/><line x1="623" y1="230" x2="623" y2="250" stroke="#1765ad" stroke-width="2"/><line x1="635.25" y1="230" x2="635.25" y2="250" stroke="#1765ad" stroke-width="2"/><line x1="647.5" y1="230" x2="647.5" y2="250" stroke="#1765ad" stroke-width="2"/><line x1="659.75" y1="230" x2="659.75" y2="250" stroke="#1765ad" stroke-width="2"/><line x1="672" y1="230" x2="672" y2="250" stroke="#1765ad" stroke-width="2"/><line x1="684.25" y1="230" x2="684.25" y2="250" stroke="#1765ad" stroke-width="2"/><line x1="696.5" y1="230" x2="696.5" y2="250" stroke="#1765ad" stroke-width="2"/><line x1="708.75" y1="230" x2="708.75" y2="250" stroke="#1765ad" stroke-width="2"/><line x1="721" y1="230" x2="721" y2="250" stroke="#1765ad" stroke-width="2"/><line x1="733.25" y1="230" x2="733.25" y2="250" stroke="#1765ad" stroke-width="2"/><line x1="745.5" y1="230" x2="745.5" y2="250" stroke="#1765ad" stroke-width="2"/><line x1="757.75" y1="230" x2="757.75" y2="250" stroke="#1765ad" stroke-width="2"/><line x1="770" y1="230" x2="770" y2="250" stroke="#1765ad" stroke-width="2"/><line x1="782.25" y1="230" x2="782.25" y2="250" stroke="#1765ad" stroke-width="2"/><line x1="794.5" y1="230" x2="794.5" y2="250" stroke="#1765ad" stroke-width="2"/><line x1="806.75" y1="230" x2="806.75" y2="250" stroke="#1765ad" stroke-width="2"/><line x1="819" y1="230" x2="819" y2="250" stroke="#1765ad" stroke-width="2"/><line x1="831.25" y1="230" x2="831.25" y2="250" stroke="#1765ad" stroke-width="2"/><line x1="843.5" y1="230" x2="843.5" y2="250" stroke="#1765ad" stroke-width="2"/><line x1="855.75" y1="230" x2="855.75" y2="250" stroke="#1765ad" stroke-width="2"/><line x1="868" y1="230" x2="868" y2="250" stroke="#1765ad" stroke-width="2"/><line x1="880.25" y1="230" x2="880.25" y2="250" stroke="#1765ad" stroke-width="2"/><line x1="892.5" y1="230" x2="892.5" y2="250" stroke="#1765ad" stroke-width="2"/><line x1="904.75" y1="230" x2="904.75" y2="250" stroke="#1765ad" stroke-width="2"/><line x1="917" y1="230" x2="917" y2="250" stroke="#1765ad" stroke-width="2"/><line x1="929.25" y1="230" x2="929.25" y2="250" stroke="#1765ad" stroke-width="2"/><line x1="941.5" y1="230" x2="941.5" y2="250" stroke="#1765ad" stroke-width="2"/><line x1="953.75" y1="230" x2="953.75" y2="250" stroke="#1765ad" stroke-width="2"/><line x1="966" y1="230" x2="966" y2="250" stroke="#1765ad" stroke-width="2"/><line x1="978.25" y1="230" x2="978.25" y2="250" stroke="#1765ad" stroke-width="2"/><line x1="990.5" y1="230" x2="990.5" y2="250" stroke="#1765ad" stroke-width="2"/><line x1="1002.75" y1="230" x2="1002.75" y2="250" stroke="#1765ad" stroke-width="2"/><line x1="1015" y1="230" x2="1015" y2="250" stroke="#1765ad" stroke-width="2"/><line x1="1027.25" y1="230" x2="1027.25" y2="250" stroke="#1765ad" stroke-width="2"/><line x1="1039.5" y1="230" x2="1039.5" y2="250" stroke="#1765ad" stroke-width="2"/><line x1="1051.75" y1="230" x2="1051.75" y2="250" stroke="#1765ad" stroke-width="2"/><line x1="1064" y1="230" x2="1064" y2="250" stroke="#1765ad" stroke-width="2"/><line x1="1076.25" y1="230" x2="1076.25" y2="250" stroke="#1765ad" stroke-width="2"/><line x1="1088.5" y1="230" x2="1088.5" y2="250" stroke="#1765ad" stroke-width="2"/><line x1="1100.75" y1="230" x2="1100.75" y2="250" stroke="#1765ad" stroke-width="2"/><line x1="1113" y1="230" x2="1113" y2="250" stroke="#1765ad" stroke-width="2"/><line x1="1125.25" y1="230" x2="1125.25" y2="250" stroke="#1765ad" stroke-width="2"/><line x1="1137.5" y1="230" x2="1137.5" y2="250" stroke="#1765ad" stroke-width="2"/><text x="30" y="370" font-size="27" fill="#087768" text-anchor="start">摘要：500 ms</text><line x1="280" y1="365" x2="1137.5" y2="365" stroke="#087768" stroke-width="2"/><line x1="280" y1="350" x2="280" y2="380" stroke="#087768" stroke-width="4"/><text x="260" y="425" font-size="21" fill="#52657a" text-anchor="start">0</text><line x1="402.5" y1="350" x2="402.5" y2="380" stroke="#087768" stroke-width="4"/><text x="382.5" y="425" font-size="21" fill="#52657a" text-anchor="start">500</text><line x1="525" y1="350" x2="525" y2="380" stroke="#087768" stroke-width="4"/><text x="505" y="425" font-size="21" fill="#52657a" text-anchor="start">1000</text><line x1="647.5" y1="350" x2="647.5" y2="380" stroke="#087768" stroke-width="4"/><text x="627.5" y="425" font-size="21" fill="#52657a" text-anchor="start">1500</text><line x1="770" y1="350" x2="770" y2="380" stroke="#087768" stroke-width="4"/><text x="750" y="425" font-size="21" fill="#52657a" text-anchor="start">2000</text><line x1="892.5" y1="350" x2="892.5" y2="380" stroke="#087768" stroke-width="4"/><text x="872.5" y="425" font-size="21" fill="#52657a" text-anchor="start">2500</text><line x1="1015" y1="350" x2="1015" y2="380" stroke="#087768" stroke-width="4"/><text x="995" y="425" font-size="21" fill="#52657a" text-anchor="start">3000</text><line x1="1137.5" y1="350" x2="1137.5" y2="380" stroke="#087768" stroke-width="4"/><text x="1117.5" y="425" font-size="21" fill="#52657a" text-anchor="start">3500</text><text x="30" y="535" font-size="26" fill="#ae2842" text-anchor="start">DHT：2500 ms</text><line x1="892.5" y1="480" x2="892.5" y2="555" stroke="#ae2842" stroke-width="6"/><text x="797.5" y="582" font-size="24" fill="#ae2842" text-anchor="start">取得一輪數字</text><rect x="30" y="635" width="1140" height="130" rx="12" fill="#f3f7fb" stroke="#bccbd8" stroke-width="2"/><text x="50" y="679" font-size="24" fill="#183047" text-anchor="start">假設DHT於2500 ms取得，3000 ms摘要：age＝3000−2500＝500 ms。</text><text x="50" y="730" font-size="25" fill="#ae2842" text-anchor="start">螢幕同時看見，不代表兩種感測器同時新量。缺值也不能用舊值補。</text></svg>
